<svg xmlns="http://www.w3.org/2000/svg" xmlns:xlink="http://www.w3.org/1999/xlink" width="24" height="24" viewBox="0 0 24 24">
  <defs>
    <path id="slack-a" d="M10.23,11.16 L12.91,10.27 L13.77,12.84 L11.09,13.73 L10.23,11.16 L10.23,11.16 Z M17.69,13.71 C18.23,13.53 18.5,12.94 18.34,12.4 C18.16,11.86 17.57,11.56 17.03,11.75 L15.73,12.18 L14.87,9.61 L16.17,9.17 C16.71,9 17,8.4 16.82,7.86 C16.64,7.32 16.05,7 15.5,7.21 L14.21,7.64 L13.76,6.3 C13.58,5.76 13,5.46 12.45,5.65 C11.91,5.83 11.62,6.42 11.8,6.96 L12.25,8.3 L9.57,9.19 L9.12,7.85 C8.94,7.31 8.36,7 7.81,7.2 C7.27,7.38 7,7.97 7.16,8.5 L7.61,9.85 L6.31,10.29 C5.77,10.47 5.5,11.06 5.66,11.6 C5.8,12 6.19,12.3 6.61,12.31 L6.97,12.25 L8.27,11.82 L9.13,14.39 L7.83,14.83 C7.29,15 7,15.6 7.18,16.14 C7.32,16.56 7.71,16.84 8.13,16.85 L8.5,16.79 L9.79,16.36 L10.24,17.7 C10.38,18.13 10.77,18.4 11.19,18.41 L11.55,18.35 C12.09,18.17 12.38,17.59 12.2,17.04 L11.75,15.7 L14.43,14.81 L14.88,16.15 C15,16.57 15.41,16.84 15.83,16.85 L16.19,16.8 C16.73,16.62 17,16.03 16.84,15.5 L16.39,14.15 L17.69,13.71 L17.69,13.71 Z M21.17,9.25 C23.23,16.12 21.62,19.1 14.75,21.17 C7.88,23.23 4.9,21.62 2.83,14.75 C0.77,7.88 2.38,4.9 9.25,2.83 C16.12,0.77 19.1,2.38 21.17,9.25 Z"/>
  </defs>
  <g fill-rule="evenodd">
    <use fill-rule="nonzero" xlink:href="#slack-a"/>
  </g>
</svg>
